<svg width="130" height="60" viewBox="0 0 130 60" fill="none" xmlns="http://www.w3.org/2000/svg">
<g id="ATTO">
<g id="Logo">
<path fill-rule="evenodd" clip-rule="evenodd" d="M35.1298 20.5123H45.563V50.5878H53.6196V20.5123H70.2565V50.5878H78.2997V20.5123H87.793L93.2283 13.2267H35.1298V20.5123Z" fill="white"/>
<path fill-rule="evenodd" clip-rule="evenodd" d="M3.8003 46.3481C6.25757 41.1755 10.8767 37.2239 16.4626 35.797L20.9474 24.848L25.392 35.6872C31.1525 37.0044 35.9193 40.9422 38.4437 46.2384H38.484L24.4521 13.2267H17.7919L3.8003 46.3481Z" fill="white"/>
<path fill-rule="evenodd" clip-rule="evenodd" d="M20.9069 35.1933C13.374 35.303 6.90183 39.8034 3.82689 46.3069L3.1958 47.7887L2.01416 50.5877H10.8898C12.528 46.3207 16.3952 43.5491 20.9069 43.4393C21.0009 43.4393 21.6454 43.4393 21.7528 43.4531C26.1302 43.6863 29.8497 46.4167 31.4476 50.5877H40.3367L39.1416 47.7887L38.5239 46.3069C35.5296 39.968 29.2857 35.5226 22.0079 35.207C21.82 35.1933 21.0949 35.1933 20.9069 35.1933Z" fill="white"/>
</g>
<path id="Logo_2" fill-rule="evenodd" clip-rule="evenodd" d="M107.319 43.261C101.169 43.261 96.1872 38.1707 96.1872 31.8867C96.1872 25.6027 101.169 20.5124 107.319 20.5124C113.469 20.5124 118.45 25.6027 118.45 31.8867C118.45 38.1707 113.469 43.261 107.319 43.261ZM126.52 31.8867C126.52 21.0475 117.927 12.2663 107.319 12.2663C96.7109 12.2663 88.1172 21.0475 88.1172 31.8867C88.1172 42.7259 96.7109 51.5071 107.319 51.5071C117.927 51.5071 126.52 42.7259 126.52 31.8867Z" fill="#5FC935"/>
</g>
</svg>
