<svg width="73" height="27" viewBox="0 0 73 27" fill="none" xmlns="http://www.w3.org/2000/svg">
<path d="M2.4 26.88C2.37867 26.88 2.304 26.8587 2.176 26.816C2.112 26.7947 2.03733 26.72 1.952 26.592C1.93067 26.528 1.90933 26.464 1.888 26.4C1.86667 26.336 1.856 26.272 1.856 26.208C1.792 25.888 1.76 25.568 1.76 25.248V23.04C1.76 22.848 1.73867 22.656 1.696 22.464C1.65333 22.272 1.61067 22.08 1.568 21.888C1.568 21.8453 1.54667 21.7813 1.504 21.696C1.48267 21.632 1.45067 21.568 1.408 21.504C1.36533 21.4187 1.32267 21.344 1.28 21.28C1.19467 21.1307 1.13067 20.9707 1.088 20.8C1.04533 20.6293 1.01333 20.4693 0.992 20.32C0.970667 20.0853 0.970667 19.8613 0.992 19.648C1.03467 19.52 1.06667 19.4027 1.088 19.296C1.10933 19.168 1.14133 19.0507 1.184 18.944C1.248 18.7733 1.30133 18.6027 1.344 18.432C1.38667 18.24 1.44 18.048 1.504 17.856L1.984 16.288C2.13333 15.84 2.32533 15.3813 2.56 14.912C2.79467 14.464 3.01867 13.9627 3.232 13.408C3.27467 13.28 3.328 13.1413 3.392 12.992C3.47733 12.7573 3.56267 12.5333 3.648 12.32C3.75467 12.0853 3.85067 11.8613 3.936 11.648L4.416 10.304C4.45867 10.2187 4.49067 10.1333 4.512 10.048C4.53333 9.96267 4.55467 9.87733 4.576 9.792C4.74667 9.36533 4.91733 8.96 5.088 8.576C5.216 8.32 5.30133 8.04267 5.344 7.744C5.38667 7.44533 5.38667 7.14667 5.344 6.848C5.32267 6.72 5.30133 6.592 5.28 6.464C5.28 6.31467 5.28 6.176 5.28 6.048C5.28 5.984 5.25867 5.93067 5.216 5.888C5.19467 5.824 5.19467 5.76 5.216 5.696C5.23733 5.65333 5.25867 5.61067 5.28 5.568C5.32267 5.52533 5.35467 5.48267 5.376 5.44C5.44 5.20533 5.536 5.00267 5.664 4.832C5.81333 4.64 5.97333 4.46933 6.144 4.32C6.22933 4.23467 6.34667 4.17067 6.496 4.128C6.58133 4.08533 6.656 4.04267 6.72 4C6.80533 3.95733 6.88 3.904 6.944 3.84C7.05067 3.75467 7.168 3.70133 7.296 3.68C7.46667 3.65867 7.648 3.59467 7.84 3.488C8.01067 3.38133 8.20267 3.34933 8.416 3.392H8.704C8.85333 3.392 9.01333 3.44533 9.184 3.552C9.22667 3.57333 9.26933 3.60533 9.312 3.648C9.376 3.66933 9.44 3.70133 9.504 3.744C9.67467 3.872 9.76 4.032 9.76 4.224C9.76 4.37333 9.77067 4.512 9.792 4.64C9.83467 4.768 9.86667 4.90667 9.888 5.056C9.93067 5.184 9.93067 5.32267 9.888 5.472C9.86667 5.51467 9.856 5.568 9.856 5.632C9.856 5.67467 9.84533 5.71733 9.824 5.76C9.824 5.84533 9.81333 5.93067 9.792 6.016C9.792 6.10133 9.78133 6.18667 9.76 6.272C9.696 6.42133 9.71733 6.57067 9.824 6.72C9.99467 6.99733 10.144 7.28533 10.272 7.584C10.4213 7.88267 10.5707 8.18133 10.72 8.48L11.296 9.504C11.4667 9.78133 11.6373 10.112 11.808 10.496C11.8507 10.56 11.8827 10.624 11.904 10.688C11.9467 10.752 11.9893 10.816 12.032 10.88C12.096 10.9867 12.1493 11.104 12.192 11.232C12.256 11.36 12.32 11.488 12.384 11.616C12.5547 11.936 12.6933 12.2667 12.8 12.608C12.928 12.928 13.056 13.2693 13.184 13.632C13.184 13.6533 13.184 13.6747 13.184 13.696C13.2053 13.696 13.216 13.7067 13.216 13.728C13.2373 13.8773 13.344 13.952 13.536 13.952C13.6 13.9307 13.664 13.92 13.728 13.92C13.8133 13.92 13.888 13.92 13.952 13.92C14.1867 13.92 14.3893 13.9627 14.56 14.048C14.6667 14.0693 14.7733 14.1333 14.88 14.24C15.0507 14.4107 15.168 14.5493 15.232 14.656C15.296 14.7627 15.3387 14.9227 15.36 15.136C15.4453 15.5413 15.36 15.8933 15.104 16.192L14.912 16.352C14.8693 16.3947 14.816 16.4373 14.752 16.48C14.688 16.5013 14.6347 16.5333 14.592 16.576C14.4853 16.6613 14.4213 16.7253 14.4 16.768C14.4 16.8107 14.432 16.9067 14.496 17.056L14.976 18.208C15.168 18.6347 15.36 19.0613 15.552 19.488C15.7653 19.9147 15.9787 20.3413 16.192 20.768C16.2773 20.9173 16.3413 21.0667 16.384 21.216C16.448 21.3653 16.4907 21.5253 16.512 21.696C16.5333 21.824 16.5333 21.952 16.512 22.08C16.512 22.208 16.5013 22.336 16.48 22.464C16.48 22.4853 16.4587 22.56 16.416 22.688C16.352 22.7733 16.288 22.8587 16.224 22.944C16.1813 23.0293 16.128 23.1147 16.064 23.2C15.8933 23.4347 15.7547 23.7013 15.648 24C15.6053 24.192 15.4667 24.3413 15.232 24.448C15.104 24.512 14.9653 24.512 14.816 24.448C14.624 24.384 14.496 24.256 14.432 24.064L14.368 23.904C14.304 23.6907 14.208 23.488 14.08 23.296C13.9947 23.1467 13.9093 22.9973 13.824 22.848C13.76 22.6773 13.6853 22.5173 13.6 22.368C13.5787 22.3253 13.568 22.2933 13.568 22.272C13.568 22.2293 13.5573 22.1973 13.536 22.176C13.5147 22.048 13.472 21.9307 13.408 21.824C13.3653 21.696 13.312 21.5787 13.248 21.472C13.12 21.152 12.9813 20.8427 12.832 20.544C12.704 20.224 12.5653 19.904 12.416 19.584L11.936 18.56C11.9147 18.496 11.8933 18.432 11.872 18.368C11.8507 18.2827 11.8187 18.1973 11.776 18.112L11.392 17.248C11.392 17.2053 11.3707 17.1413 11.328 17.056C11.2213 16.8853 11.0827 16.7893 10.912 16.768C10.7627 16.768 10.624 16.7573 10.496 16.736C10.368 16.7147 10.24 16.704 10.112 16.704C9.77067 16.704 9.42933 16.736 9.088 16.8C8.74667 16.864 8.42667 16.9813 8.128 17.152C7.72267 17.3867 7.30667 17.536 6.88 17.6C6.79467 17.6 6.70933 17.6107 6.624 17.632C6.53867 17.6533 6.45333 17.6853 6.368 17.728C6.24 17.8133 6.16533 17.9093 6.144 18.016C6.10133 18.144 6.08 18.24 6.08 18.304L5.984 18.752C5.96267 18.9013 5.87733 19.0507 5.728 19.2C5.62133 19.3067 5.472 19.36 5.28 19.36C5.00267 19.3173 4.82133 19.1787 4.736 18.944C4.71467 18.88 4.69333 18.816 4.672 18.752C4.65067 18.688 4.62933 18.6133 4.608 18.528C4.52267 18.656 4.512 18.7627 4.576 18.848C4.61867 18.9333 4.59733 19.008 4.512 19.072C4.46933 19.1147 4.45867 19.1467 4.48 19.168C4.52267 19.2533 4.512 19.328 4.448 19.392C4.384 19.456 4.36267 19.5307 4.384 19.616C4.40533 19.6587 4.40533 19.712 4.384 19.776C4.27733 19.9253 4.20267 20.1067 4.16 20.32C4.18133 20.4053 4.128 20.4693 4 20.512C3.95733 20.512 3.936 20.5333 3.936 20.576C3.89333 20.64 3.85067 20.736 3.808 20.864C3.78667 20.9707 3.75467 21.088 3.712 21.216C3.69067 21.3227 3.65867 21.4293 3.616 21.536L3.424 22.336V22.464C3.424 22.656 3.40267 22.848 3.36 23.04C3.33867 23.2107 3.328 23.392 3.328 23.584L3.232 24.64C3.21067 24.7893 3.18933 24.9387 3.168 25.088C3.168 25.2587 3.168 25.4293 3.168 25.6C3.14667 25.728 3.12533 25.8453 3.104 25.952C3.104 26.08 3.08267 26.208 3.04 26.336C2.99733 26.528 2.92267 26.6667 2.816 26.752C2.73067 26.88 2.592 26.9227 2.4 26.88ZM6.56 13.92H6.592C6.80533 13.8773 7.008 13.8453 7.2 13.824C7.392 13.8027 7.584 13.7813 7.776 13.76C7.904 13.7387 8.032 13.728 8.16 13.728C8.288 13.7067 8.416 13.696 8.544 13.696H9.216C9.25867 13.696 9.30133 13.696 9.344 13.696C9.38667 13.6747 9.41867 13.664 9.44 13.664C9.48267 13.664 9.504 13.6213 9.504 13.536C9.44 13.4507 9.38667 13.3653 9.344 13.28C9.30133 13.1947 9.25867 13.1093 9.216 13.024C9.088 12.7253 8.91733 12.4693 8.704 12.256C8.68267 12.2133 8.66133 12.1813 8.64 12.16C8.61867 12.1173 8.59733 12.0747 8.576 12.032C8.55467 11.9893 8.52267 11.9467 8.48 11.904C8.45867 11.84 8.42667 11.7867 8.384 11.744C8.27733 11.6587 8.17067 11.68 8.064 11.808L7.968 12.064C7.94667 12.2347 7.91467 12.416 7.872 12.608C7.82933 12.7787 7.78667 12.9493 7.744 13.12C7.744 13.1627 7.72267 13.2267 7.68 13.312C7.63733 13.44 7.53067 13.536 7.36 13.6C7.21067 13.664 7.05067 13.6427 6.88 13.536L6.688 13.408C6.688 13.408 6.66667 13.408 6.624 13.408C6.58133 13.4933 6.56 13.5573 6.56 13.6C6.56 13.6427 6.56 13.6853 6.56 13.728C6.58133 13.7707 6.57067 13.8133 6.528 13.856C6.48533 13.8987 6.496 13.92 6.56 13.92ZM28.084 23.968C27.8067 24.032 27.5187 24.0107 27.22 23.904C27.1347 23.8827 27.06 23.8507 26.996 23.808C26.9533 23.7653 26.9 23.7227 26.836 23.68C26.6867 23.5733 26.5693 23.4133 26.484 23.2L26.356 22.784C26.356 22.7413 26.3453 22.7093 26.324 22.688C26.324 22.6453 26.324 22.6133 26.324 22.592C26.324 22.2933 26.3027 22.0053 26.26 21.728C26.2173 21.4293 26.1747 21.1413 26.132 20.864C26.0893 20.6507 26.0467 20.4373 26.004 20.224C25.9827 20.0107 25.9507 19.7973 25.908 19.584C25.908 19.5413 25.8973 19.5093 25.876 19.488C25.876 19.4667 25.876 19.4453 25.876 19.424C25.8333 19.168 25.7907 18.912 25.748 18.656C25.7053 18.4 25.6627 18.1547 25.62 17.92C25.5987 17.792 25.5773 17.664 25.556 17.536C25.556 17.408 25.5347 17.28 25.492 17.152L25.3 15.744C25.2787 15.552 25.2467 15.36 25.204 15.168C25.1827 14.9547 25.1507 14.7413 25.108 14.528C25.0867 14.3147 25.0547 14.112 25.012 13.92C24.9693 13.7067 24.9267 13.504 24.884 13.312L24.404 11.2C24.3613 10.9653 24.3187 10.7307 24.276 10.496C24.2333 10.2613 24.18 10.0373 24.116 9.824C24.052 9.632 23.9987 9.44 23.956 9.248C23.9133 9.03467 23.8493 8.832 23.764 8.64L23.732 8.512C23.668 8.23467 23.5827 7.968 23.476 7.712C23.3907 7.456 23.2947 7.2 23.188 6.944C23.188 6.92267 23.1773 6.912 23.156 6.912C23.156 6.89067 23.156 6.88 23.156 6.88C23.1133 6.752 23.0387 6.70933 22.932 6.752C22.9107 6.77333 22.8787 6.784 22.836 6.784C22.7507 6.80533 22.6653 6.83733 22.58 6.88C22.516 6.92267 22.4413 6.96533 22.356 7.008C22.1427 7.072 21.9613 7.168 21.812 7.296L20.948 7.904C20.82 7.968 20.7027 8.05333 20.596 8.16C20.5107 8.26667 20.4253 8.37333 20.34 8.48C20.276 8.56533 20.244 8.66133 20.244 8.768L20.148 9.344C20.1267 9.55733 20.1053 9.78133 20.084 10.016C20.0627 10.2507 20.0413 10.4853 20.02 10.72C19.9987 10.9333 19.9667 11.136 19.924 11.328C19.9027 11.4987 19.892 11.6907 19.892 11.904C19.892 12.0747 19.86 12.256 19.796 12.448C19.732 12.6827 19.572 12.832 19.316 12.896C19.124 12.9173 18.964 12.8533 18.836 12.704C18.7293 12.5973 18.6547 12.4373 18.612 12.224C18.5907 12.0747 18.5693 11.936 18.548 11.808C18.5267 11.68 18.516 11.5413 18.516 11.392V10.432C18.516 10.24 18.5053 10.0587 18.484 9.888C18.484 9.71733 18.4947 9.55733 18.516 9.408C18.516 9.04533 18.4307 8.69333 18.26 8.352L17.78 7.36C17.6947 7.18933 17.62 6.96533 17.556 6.688C17.492 6.38933 17.46 6.144 17.46 5.952C17.5027 5.46133 17.684 5.056 18.004 4.736C18.2813 4.45867 18.6013 4.27733 18.964 4.192C19.092 4.14933 19.2627 4.10667 19.476 4.064L21.172 3.776C21.3427 3.75467 21.5027 3.73333 21.652 3.712C21.8227 3.66933 21.9827 3.63733 22.132 3.616C22.452 3.57333 22.772 3.53067 23.092 3.488C23.4333 3.44533 23.7747 3.41333 24.116 3.392C24.308 3.37067 24.5 3.34933 24.692 3.328C24.884 3.30667 25.076 3.28533 25.268 3.264H25.396C25.588 3.24267 25.7693 3.232 25.94 3.232C26.132 3.21067 26.324 3.18933 26.516 3.168C26.6227 3.14667 26.7293 3.136 26.836 3.136C26.9427 3.136 27.0387 3.12533 27.124 3.104C27.1453 3.08267 27.188 3.072 27.252 3.072L28.436 2.976C28.6707 2.95467 28.8947 2.93333 29.108 2.912C29.3427 2.89067 29.5773 2.86933 29.812 2.848C30.004 2.82667 30.196 2.80533 30.388 2.784C30.58 2.74133 30.772 2.67733 30.964 2.592C31.156 2.50667 31.348 2.48533 31.54 2.528C31.7533 2.54933 31.9453 2.60267 32.116 2.688C32.18 2.70933 32.2333 2.752 32.276 2.816C32.34 2.85867 32.3933 2.90133 32.436 2.944C32.5427 3.05066 32.628 3.17867 32.692 3.328C32.756 3.456 32.82 3.584 32.884 3.712C32.948 3.84 32.948 3.968 32.884 4.096C32.8413 4.18133 32.8093 4.27733 32.788 4.384C32.788 4.46933 32.7773 4.56533 32.756 4.672C32.756 4.77867 32.724 4.864 32.66 4.928C32.6173 4.94933 32.5747 4.98133 32.532 5.024C32.4893 5.06667 32.4467 5.10933 32.404 5.152C32.34 5.17333 32.276 5.23733 32.212 5.344C32.084 5.51467 31.9027 5.6 31.668 5.6C31.5827 5.6 31.4973 5.61067 31.412 5.632C31.348 5.65333 31.2733 5.67467 31.188 5.696C30.996 5.73867 30.868 5.80267 30.804 5.888C30.6973 5.99467 30.58 6.048 30.452 6.048C30.3027 6.09067 30.1853 6.048 30.1 5.92C30.0787 5.856 30.0253 5.824 29.94 5.824C29.8547 5.84533 29.7587 5.856 29.652 5.856C29.5667 5.856 29.4813 5.856 29.396 5.856C29.3107 5.87733 29.2147 5.888 29.108 5.888C29.0227 5.888 28.9267 5.89867 28.82 5.92C28.7347 5.92 28.66 5.93067 28.596 5.952C28.532 5.952 28.4573 5.952 28.372 5.952C28.1587 5.97333 27.9347 5.99467 27.7 6.016C27.4867 6.03733 27.2627 6.05867 27.028 6.08C26.9 6.08 26.804 6.09067 26.74 6.112C26.6547 6.15467 26.612 6.21867 26.612 6.304C26.5907 6.38933 26.5907 6.496 26.612 6.624L26.804 7.616C26.8467 7.808 26.8893 8.01067 26.932 8.224C26.9747 8.416 27.0173 8.61867 27.06 8.832L27.156 9.536C27.156 9.62133 27.156 9.70667 27.156 9.792C27.1773 9.856 27.1987 9.93067 27.22 10.016C27.2627 10.272 27.3053 10.528 27.348 10.784C27.412 11.04 27.4547 11.296 27.476 11.552L27.508 11.68C27.5933 11.9573 27.6573 12.2347 27.7 12.512C27.7427 12.7893 27.7853 13.0773 27.828 13.376C27.8707 13.568 27.9133 13.7707 27.956 13.984C27.9987 14.176 28.0307 14.368 28.052 14.56C28.0733 14.7093 28.0947 14.8587 28.116 15.008C28.1373 15.136 28.1587 15.2747 28.18 15.424V15.584C28.2013 15.7547 28.2227 15.9253 28.244 16.096C28.2867 16.2453 28.3187 16.4053 28.34 16.576L28.436 17.536C28.4573 17.6853 28.4787 17.8347 28.5 17.984C28.5213 18.1333 28.5427 18.2933 28.564 18.464C28.564 18.5067 28.564 18.56 28.564 18.624C28.5853 18.6667 28.596 18.7093 28.596 18.752C28.596 18.8587 28.6067 18.976 28.628 19.104C28.6493 19.2107 28.6707 19.328 28.692 19.456C28.7347 19.6907 28.7773 19.936 28.82 20.192C28.8627 20.4267 28.9053 20.672 28.948 20.928C28.9693 21.0773 29.0013 21.2267 29.044 21.376C29.0867 21.504 29.1187 21.6427 29.14 21.792C29.1613 21.8987 29.2253 22.0053 29.332 22.112C29.4173 22.176 29.4387 22.2507 29.396 22.336C29.332 22.4213 29.2893 22.5173 29.268 22.624C29.268 22.7307 29.2573 22.8373 29.236 22.944C29.236 23.0293 29.2253 23.0933 29.204 23.136C29.204 23.2427 29.1613 23.3173 29.076 23.36C28.9907 23.4027 28.9053 23.488 28.82 23.616C28.7133 23.7227 28.628 23.7973 28.564 23.84C28.5 23.904 28.4147 23.936 28.308 23.936C28.2653 23.9147 28.1907 23.9253 28.084 23.968ZM46.084 23.968C45.8067 24.032 45.5187 24.0107 45.22 23.904C45.1347 23.8827 45.06 23.8507 44.996 23.808C44.9533 23.7653 44.9 23.7227 44.836 23.68C44.6867 23.5733 44.5693 23.4133 44.484 23.2L44.356 22.784C44.356 22.7413 44.3453 22.7093 44.324 22.688C44.324 22.6453 44.324 22.6133 44.324 22.592C44.324 22.2933 44.3027 22.0053 44.26 21.728C44.2173 21.4293 44.1747 21.1413 44.132 20.864C44.0893 20.6507 44.0467 20.4373 44.004 20.224C43.9827 20.0107 43.9507 19.7973 43.908 19.584C43.908 19.5413 43.8973 19.5093 43.876 19.488C43.876 19.4667 43.876 19.4453 43.876 19.424C43.8333 19.168 43.7907 18.912 43.748 18.656C43.7053 18.4 43.6627 18.1547 43.62 17.92C43.5987 17.792 43.5773 17.664 43.556 17.536C43.556 17.408 43.5347 17.28 43.492 17.152L43.3 15.744C43.2787 15.552 43.2467 15.36 43.204 15.168C43.1827 14.9547 43.1507 14.7413 43.108 14.528C43.0867 14.3147 43.0547 14.112 43.012 13.92C42.9693 13.7067 42.9267 13.504 42.884 13.312L42.404 11.2C42.3613 10.9653 42.3187 10.7307 42.276 10.496C42.2333 10.2613 42.18 10.0373 42.116 9.824C42.052 9.632 41.9987 9.44 41.956 9.248C41.9133 9.03467 41.8493 8.832 41.764 8.64L41.732 8.512C41.668 8.23467 41.5827 7.968 41.476 7.712C41.3907 7.456 41.2947 7.2 41.188 6.944C41.188 6.92267 41.1773 6.912 41.156 6.912C41.156 6.89067 41.156 6.88 41.156 6.88C41.1133 6.752 41.0387 6.70933 40.932 6.752C40.9107 6.77333 40.8787 6.784 40.836 6.784C40.7507 6.80533 40.6653 6.83733 40.58 6.88C40.516 6.92267 40.4413 6.96533 40.356 7.008C40.1427 7.072 39.9613 7.168 39.812 7.296L38.948 7.904C38.82 7.968 38.7027 8.05333 38.596 8.16C38.5107 8.26667 38.4253 8.37333 38.34 8.48C38.276 8.56533 38.244 8.66133 38.244 8.768L38.148 9.344C38.1267 9.55733 38.1053 9.78133 38.084 10.016C38.0627 10.2507 38.0413 10.4853 38.02 10.72C37.9987 10.9333 37.9667 11.136 37.924 11.328C37.9027 11.4987 37.892 11.6907 37.892 11.904C37.892 12.0747 37.86 12.256 37.796 12.448C37.732 12.6827 37.572 12.832 37.316 12.896C37.124 12.9173 36.964 12.8533 36.836 12.704C36.7293 12.5973 36.6547 12.4373 36.612 12.224C36.5907 12.0747 36.5693 11.936 36.548 11.808C36.5267 11.68 36.516 11.5413 36.516 11.392V10.432C36.516 10.24 36.5053 10.0587 36.484 9.888C36.484 9.71733 36.4947 9.55733 36.516 9.408C36.516 9.04533 36.4307 8.69333 36.26 8.352L35.78 7.36C35.6947 7.18933 35.62 6.96533 35.556 6.688C35.492 6.38933 35.46 6.144 35.46 5.952C35.5027 5.46133 35.684 5.056 36.004 4.736C36.2813 4.45867 36.6013 4.27733 36.964 4.192C37.092 4.14933 37.2627 4.10667 37.476 4.064L39.172 3.776C39.3427 3.75467 39.5027 3.73333 39.652 3.712C39.8227 3.66933 39.9827 3.63733 40.132 3.616C40.452 3.57333 40.772 3.53067 41.092 3.488C41.4333 3.44533 41.7747 3.41333 42.116 3.392C42.308 3.37067 42.5 3.34933 42.692 3.328C42.884 3.30667 43.076 3.28533 43.268 3.264H43.396C43.588 3.24267 43.7693 3.232 43.94 3.232C44.132 3.21067 44.324 3.18933 44.516 3.168C44.6227 3.14667 44.7293 3.136 44.836 3.136C44.9427 3.136 45.0387 3.12533 45.124 3.104C45.1453 3.08267 45.188 3.072 45.252 3.072L46.436 2.976C46.6707 2.95467 46.8947 2.93333 47.108 2.912C47.3427 2.89067 47.5773 2.86933 47.812 2.848C48.004 2.82667 48.196 2.80533 48.388 2.784C48.58 2.74133 48.772 2.67733 48.964 2.592C49.156 2.50667 49.348 2.48533 49.54 2.528C49.7533 2.54933 49.9453 2.60267 50.116 2.688C50.18 2.70933 50.2333 2.752 50.276 2.816C50.34 2.85867 50.3933 2.90133 50.436 2.944C50.5427 3.05066 50.628 3.17867 50.692 3.328C50.756 3.456 50.82 3.584 50.884 3.712C50.948 3.84 50.948 3.968 50.884 4.096C50.8413 4.18133 50.8093 4.27733 50.788 4.384C50.788 4.46933 50.7773 4.56533 50.756 4.672C50.756 4.77867 50.724 4.864 50.66 4.928C50.6173 4.94933 50.5747 4.98133 50.532 5.024C50.4893 5.06667 50.4467 5.10933 50.404 5.152C50.34 5.17333 50.276 5.23733 50.212 5.344C50.084 5.51467 49.9027 5.6 49.668 5.6C49.5827 5.6 49.4973 5.61067 49.412 5.632C49.348 5.65333 49.2733 5.67467 49.188 5.696C48.996 5.73867 48.868 5.80267 48.804 5.888C48.6973 5.99467 48.58 6.048 48.452 6.048C48.3027 6.09067 48.1853 6.048 48.1 5.92C48.0787 5.856 48.0253 5.824 47.94 5.824C47.8547 5.84533 47.7587 5.856 47.652 5.856C47.5667 5.856 47.4813 5.856 47.396 5.856C47.3107 5.87733 47.2147 5.888 47.108 5.888C47.0227 5.888 46.9267 5.89867 46.82 5.92C46.7347 5.92 46.66 5.93067 46.596 5.952C46.532 5.952 46.4573 5.952 46.372 5.952C46.1587 5.97333 45.9347 5.99467 45.7 6.016C45.4867 6.03733 45.2627 6.05867 45.028 6.08C44.9 6.08 44.804 6.09067 44.74 6.112C44.6547 6.15467 44.612 6.21867 44.612 6.304C44.5907 6.38933 44.5907 6.496 44.612 6.624L44.804 7.616C44.8467 7.808 44.8893 8.01067 44.932 8.224C44.9747 8.416 45.0173 8.61867 45.06 8.832L45.156 9.536C45.156 9.62133 45.156 9.70667 45.156 9.792C45.1773 9.856 45.1987 9.93067 45.22 10.016C45.2627 10.272 45.3053 10.528 45.348 10.784C45.412 11.04 45.4547 11.296 45.476 11.552L45.508 11.68C45.5933 11.9573 45.6573 12.2347 45.7 12.512C45.7427 12.7893 45.7853 13.0773 45.828 13.376C45.8707 13.568 45.9133 13.7707 45.956 13.984C45.9987 14.176 46.0307 14.368 46.052 14.56C46.0733 14.7093 46.0947 14.8587 46.116 15.008C46.1373 15.136 46.1587 15.2747 46.18 15.424V15.584C46.2013 15.7547 46.2227 15.9253 46.244 16.096C46.2867 16.2453 46.3187 16.4053 46.34 16.576L46.436 17.536C46.4573 17.6853 46.4787 17.8347 46.5 17.984C46.5213 18.1333 46.5427 18.2933 46.564 18.464C46.564 18.5067 46.564 18.56 46.564 18.624C46.5853 18.6667 46.596 18.7093 46.596 18.752C46.596 18.8587 46.6067 18.976 46.628 19.104C46.6493 19.2107 46.6707 19.328 46.692 19.456C46.7347 19.6907 46.7773 19.936 46.82 20.192C46.8627 20.4267 46.9053 20.672 46.948 20.928C46.9693 21.0773 47.0013 21.2267 47.044 21.376C47.0867 21.504 47.1187 21.6427 47.14 21.792C47.1613 21.8987 47.2253 22.0053 47.332 22.112C47.4173 22.176 47.4387 22.2507 47.396 22.336C47.332 22.4213 47.2893 22.5173 47.268 22.624C47.268 22.7307 47.2573 22.8373 47.236 22.944C47.236 23.0293 47.2253 23.0933 47.204 23.136C47.204 23.2427 47.1613 23.3173 47.076 23.36C46.9907 23.4027 46.9053 23.488 46.82 23.616C46.7133 23.7227 46.628 23.7973 46.564 23.84C46.5 23.904 46.4147 23.936 46.308 23.936C46.2653 23.9147 46.1907 23.9253 46.084 23.968Z" fill="#33357F"/>
<path d="M63.1183 24.928C62.8196 24.992 62.5423 24.9493 62.2863 24.8C62.1369 24.7147 61.9876 24.64 61.8383 24.576C61.6889 24.5333 61.5289 24.5013 61.3583 24.48C61.1449 24.4373 60.9316 24.384 60.7183 24.32C60.5263 24.2773 60.3236 24.2133 60.1103 24.128C60.0249 24.0853 59.9396 24.0427 59.8542 24C59.7903 23.9573 59.7156 23.904 59.6302 23.84C59.5663 23.7547 59.4809 23.7013 59.3743 23.68C59.2249 23.616 59.0649 23.5093 58.8943 23.36C58.8516 23.3173 58.8196 23.2747 58.7983 23.232C58.7129 23.1467 58.6169 23.072 58.5103 23.008C58.4249 22.944 58.3289 22.88 58.2223 22.816C57.9449 22.6453 57.6356 22.4427 57.2943 22.208C57.2303 22.1653 57.1769 22.112 57.1343 22.048C57.0489 21.9413 56.9423 21.8453 56.8143 21.76C56.7076 21.6747 56.6009 21.5893 56.4943 21.504L55.6302 20.928C55.6089 20.9067 55.5769 20.896 55.5343 20.896C55.4916 20.8747 55.4489 20.8533 55.4062 20.832C55.1289 20.704 54.9049 20.5227 54.7343 20.288C54.5636 20.0747 54.4036 19.8507 54.2543 19.616C54.1049 19.3813 53.9663 19.1573 53.8383 18.944C53.7956 18.9013 53.7529 18.8373 53.7103 18.752C53.6249 18.6453 53.5503 18.528 53.4863 18.4C53.4223 18.272 53.3689 18.1547 53.3263 18.048C53.2836 17.9413 53.2409 17.824 53.1983 17.696L53.1023 17.216C53.0383 17.0453 52.9956 16.8747 52.9743 16.704C52.9529 16.512 52.9209 16.3307 52.8783 16.16C52.8569 16.032 52.8249 15.904 52.7823 15.776C52.7396 15.6267 52.6863 15.488 52.6223 15.36C52.5796 15.296 52.5476 15.232 52.5263 15.168C52.5049 15.0827 52.4729 14.9973 52.4303 14.912C52.4089 14.8693 52.3983 14.7947 52.3983 14.688C52.3769 14.5173 52.3663 14.3467 52.3663 14.176C52.3876 14.0053 52.4303 13.8453 52.4943 13.696L52.5903 13.344C52.6329 13.2373 52.6649 13.1307 52.6863 13.024C52.7076 12.9173 52.7289 12.8213 52.7503 12.736C52.7503 12.5867 52.7289 12.48 52.6863 12.416C52.6649 12.3733 52.6436 12.3307 52.6223 12.288C52.6009 12.224 52.5796 12.1707 52.5583 12.128C52.4516 11.9147 52.4409 11.7227 52.5263 11.552L52.6223 11.296C52.6863 11.1893 52.7183 11.0827 52.7183 10.976C52.7183 10.6347 52.8249 10.2827 53.0383 9.92C53.1876 9.664 53.3369 9.46133 53.4863 9.312C53.6143 9.184 53.7103 9.056 53.7743 8.928C53.8596 8.75733 53.9769 8.59733 54.1263 8.448C54.3183 8.256 54.4356 8.08533 54.4783 7.936C54.5209 7.82933 54.5743 7.744 54.6383 7.68L55.1503 7.168C55.2996 6.976 55.2996 6.79467 55.1503 6.624C55.0863 6.53867 55.0329 6.45333 54.9903 6.368C54.9689 6.26133 54.9369 6.16533 54.8943 6.08C54.8303 5.71733 54.9049 5.39733 55.1183 5.12C55.2036 5.01333 55.2889 4.91733 55.3743 4.832C55.4809 4.74667 55.5983 4.68267 55.7263 4.64C55.7903 4.61867 55.8436 4.59733 55.8863 4.576C55.9503 4.55467 56.0143 4.53333 56.0783 4.512C56.1849 4.49067 56.2916 4.45867 56.3983 4.416C56.5263 4.37333 56.6436 4.33067 56.7503 4.288C56.8356 4.24533 56.9103 4.21333 56.9743 4.192C57.0383 4.17067 57.1129 4.16 57.1983 4.16C57.2836 4.13867 57.3583 4.128 57.4223 4.128C57.4863 4.10667 57.5503 4.096 57.6143 4.096C57.7849 4.07467 57.9556 3.98933 58.1263 3.84C58.4249 3.60533 58.7236 3.37067 59.0223 3.136C59.3423 2.88 59.6409 2.624 59.9183 2.368C60.0889 2.21867 60.2703 2.08 60.4623 1.952C60.6756 1.824 60.8889 1.70667 61.1023 1.6C61.2516 1.536 61.4116 1.48267 61.5823 1.44C61.6889 1.39733 61.8063 1.36533 61.9343 1.344C62.0623 1.32267 62.1796 1.30133 62.2863 1.28L62.9583 1.184C63.2569 1.16267 63.5343 1.13067 63.7903 1.088C64.0676 1.04533 64.3449 1.00267 64.6223 0.959999C64.6649 0.959999 64.7076 0.959999 64.7503 0.959999C64.7929 0.938666 64.8249 0.927999 64.8463 0.927999H65.2623C65.4116 0.927999 65.5503 0.938666 65.6783 0.959999C65.8063 0.959999 65.9343 0.981332 66.0623 1.024C66.2329 1.088 66.3823 1.17333 66.5103 1.28C66.6383 1.36533 66.7449 1.49333 66.8303 1.664C66.9796 1.87733 67.0649 2.08 67.0863 2.272C67.1076 2.4 67.1183 2.528 67.1183 2.656C67.1396 2.784 67.1503 2.912 67.1503 3.04V3.328C67.1503 3.392 67.1823 3.44533 67.2463 3.488L67.4383 3.584C67.7369 3.69067 68.0249 3.82933 68.3022 4C68.5796 4.17067 68.8463 4.352 69.1023 4.544C69.2729 4.65067 69.4009 4.75733 69.4862 4.864C69.6356 5.01333 69.7743 5.16267 69.9023 5.312C70.0303 5.44 70.1583 5.57867 70.2863 5.728C70.3716 5.83467 70.4569 5.94133 70.5423 6.048C70.6276 6.13333 70.7129 6.22933 70.7983 6.336C70.8623 6.4 70.9049 6.45333 70.9263 6.496C70.9689 6.624 71.0436 6.752 71.1503 6.88C71.2783 7.09333 71.3849 7.30667 71.4703 7.52C71.5343 7.69067 71.5983 7.872 71.6623 8.064C71.7263 8.23467 71.7796 8.416 71.8223 8.608C71.8223 8.672 71.8436 8.768 71.8863 8.896C71.9076 8.96 71.9183 9.024 71.9183 9.088C71.9396 9.13067 71.9503 9.17333 71.9503 9.216C71.9716 9.344 71.9929 9.472 72.0143 9.6C72.0569 9.728 72.0889 9.856 72.1103 9.984C72.1316 10.0907 72.1529 10.208 72.1743 10.336C72.1956 10.4427 72.2169 10.56 72.2383 10.688C72.2596 10.88 72.2916 11.0827 72.3343 11.296C72.3769 11.488 72.4089 11.68 72.4303 11.872V12.032C72.4303 12.2667 72.4409 12.512 72.4623 12.768C72.5049 13.0027 72.5263 13.2373 72.5263 13.472C72.5263 13.5573 72.5263 13.6533 72.5263 13.76C72.5263 13.8667 72.5156 13.9733 72.4943 14.08C72.4729 14.1227 72.4623 14.176 72.4623 14.24C72.4623 14.496 72.4409 14.752 72.3983 15.008C72.3556 15.2427 72.3129 15.4773 72.2703 15.712C72.1209 16.544 71.8969 17.3867 71.5983 18.24C71.5769 18.3253 71.5556 18.4213 71.5343 18.528C71.5129 18.6133 71.4809 18.7093 71.4383 18.816L70.9583 20.224C70.9369 20.3093 70.8943 20.4053 70.8303 20.512C70.7876 20.5973 70.7449 20.6933 70.7023 20.8L70.1263 21.824C69.9983 22.0587 69.8383 22.2827 69.6463 22.496C69.4756 22.688 69.2623 22.8587 69.0063 23.008C68.7503 23.1573 68.5156 23.36 68.3022 23.616C68.1529 23.8293 67.9183 23.9573 67.5983 24C67.4489 24.0213 67.2996 24.032 67.1503 24.032C67.0223 24.0533 66.8943 24.0853 66.7663 24.128L66.4463 24.224C66.4249 24.224 66.4036 24.224 66.3823 24.224C66.3823 24.2453 66.3609 24.256 66.3183 24.256C66.0836 24.2987 65.8383 24.352 65.5823 24.416C65.3476 24.48 65.1129 24.5333 64.8783 24.576C64.8356 24.5973 64.7716 24.608 64.6863 24.608C64.5583 24.608 64.4303 24.6187 64.3023 24.64C64.1743 24.6613 64.0463 24.6933 63.9183 24.736L63.1183 24.928ZM62.2543 21.6C62.3823 21.6213 62.4996 21.6107 62.6063 21.568C62.6916 21.5253 62.7769 21.5147 62.8623 21.536H63.1183C63.2249 21.536 63.3209 21.536 63.4063 21.536C63.4916 21.536 63.5769 21.5147 63.6623 21.472C63.7263 21.4293 63.8436 21.3973 64.0143 21.376C64.2063 21.3333 64.3023 21.312 64.3023 21.312C64.4729 21.2693 64.6436 21.2267 64.8143 21.184C64.9849 21.12 65.1556 21.0453 65.3263 20.96L66.6703 20.384C66.8409 20.32 67.0009 20.2453 67.1503 20.16C67.2996 20.0533 67.4489 19.9573 67.5983 19.872C67.7049 19.7653 67.8009 19.6907 67.8863 19.648C68.0143 19.5413 68.1103 19.4133 68.1743 19.264C68.2169 19.1573 68.2596 19.0507 68.3022 18.944C68.3449 18.8373 68.3769 18.7307 68.3983 18.624C68.4836 18.3893 68.5583 18.1547 68.6223 17.92C68.6863 17.664 68.7609 17.4187 68.8463 17.184C68.9529 16.864 69.0489 16.5547 69.1343 16.256C69.2409 15.936 69.3263 15.6053 69.3903 15.264C69.4116 15.1573 69.4329 15.04 69.4543 14.912C69.4756 14.784 69.4969 14.656 69.5183 14.528C69.5396 14.3787 69.5503 14.2293 69.5503 14.08C69.5503 13.9307 69.5609 13.7813 69.5823 13.632V13.408C69.5823 13.2587 69.5716 13.1093 69.5503 12.96C69.5503 12.8107 69.5503 12.6613 69.5503 12.512C69.5289 12.128 69.4863 11.744 69.4223 11.36C69.3583 10.976 69.2836 10.592 69.1983 10.208C69.1556 10.0373 69.1129 9.87733 69.0703 9.728C69.0489 9.55733 69.0169 9.39733 68.9743 9.248C68.9103 8.94933 68.8143 8.672 68.6863 8.416C68.5583 8.13867 68.4089 7.872 68.2383 7.616C68.2169 7.552 68.1849 7.52 68.1423 7.52C67.9929 7.34933 67.8329 7.17867 67.6623 7.008C67.4916 6.83733 67.2889 6.70933 67.0543 6.624C66.9689 6.60267 66.8836 6.56 66.7983 6.496C66.7129 6.45333 66.6276 6.41067 66.5423 6.368C66.4569 6.32533 66.3609 6.29333 66.2543 6.272C65.8916 6.18667 65.4969 6.12267 65.0703 6.08C65.0489 6.05867 65.0169 6.05867 64.9743 6.08C64.9316 6.10133 64.9103 6.13333 64.9103 6.176C64.9103 6.21867 64.8996 6.272 64.8783 6.336C64.8783 6.37867 64.8783 6.42133 64.8783 6.464C64.8569 6.72 64.8356 6.98667 64.8143 7.264C64.7929 7.52 64.7929 7.78667 64.8143 8.064C64.8143 8.17067 64.8143 8.288 64.8143 8.416C64.8143 8.52267 64.8036 8.62933 64.7823 8.736V9.184C64.7609 9.26933 64.7503 9.36533 64.7503 9.472C64.7503 9.55733 64.7396 9.64267 64.7183 9.728V9.92C64.6969 10.0693 64.6863 10.2187 64.6863 10.368C64.6863 10.496 64.6649 10.6453 64.6223 10.816C64.6009 10.8587 64.5903 10.9227 64.5903 11.008C64.6329 11.2213 64.6329 11.4453 64.5903 11.68V12.256C64.5689 12.4053 64.5369 12.5653 64.4943 12.736C64.4516 12.8853 64.3449 13.0133 64.1743 13.12C64.1316 13.1413 64.0569 13.1413 63.9503 13.12C63.8436 13.0987 63.7689 13.0773 63.7263 13.056C63.5769 12.992 63.4809 12.9067 63.4383 12.8C63.4169 12.736 63.3849 12.672 63.3423 12.608C63.3209 12.544 63.3103 12.48 63.3103 12.416C63.2889 12.2453 63.2569 12.0747 63.2143 11.904C63.1929 11.712 63.1823 11.52 63.1823 11.328C63.1823 11.1147 63.1823 10.9013 63.1823 10.688C63.1823 10.4747 63.1716 10.2613 63.1503 10.048V9.536C63.1716 9.45067 63.1823 9.36533 63.1823 9.28C63.1823 9.17333 63.1823 9.07733 63.1823 8.992C63.1823 8.82133 63.1716 8.65067 63.1503 8.48C63.1503 8.30933 63.1503 8.13867 63.1503 7.968C63.1503 7.84 63.1396 7.72267 63.1183 7.616C63.1183 7.488 63.1076 7.36 63.0863 7.232C63.0649 7.14667 63.0436 7.072 63.0223 7.008C63.0009 6.944 62.9689 6.88 62.9263 6.816C62.8623 6.624 62.7343 6.47467 62.5423 6.368C62.4143 6.26133 62.2756 6.26133 62.1263 6.368C62.0409 6.432 61.9556 6.496 61.8703 6.56C61.8063 6.60267 61.7316 6.66667 61.6463 6.752L61.5183 6.88C61.3903 6.944 61.2729 7.02933 61.1663 7.136C61.0809 7.22133 60.9849 7.31733 60.8783 7.424C60.8143 7.488 60.7503 7.552 60.6863 7.616C60.6223 7.65867 60.5476 7.70133 60.4623 7.744C60.3343 7.82933 60.2489 7.89333 60.2063 7.936C60.0996 8.02133 59.9929 8.10667 59.8863 8.192C59.7796 8.256 59.6729 8.34133 59.5663 8.448C59.5236 8.49067 59.4809 8.52267 59.4383 8.544C59.3956 8.56533 59.3529 8.59733 59.3103 8.64C59.2676 8.68267 59.2249 8.72533 59.1823 8.768C59.0329 8.91733 58.8729 9.07733 58.7023 9.248C58.5529 9.41867 58.3929 9.57867 58.2223 9.728C58.1156 9.83467 58.0089 9.952 57.9023 10.08C57.7956 10.1867 57.6996 10.304 57.6143 10.432C57.5929 10.496 57.5396 10.5707 57.4543 10.656L57.2303 10.944C57.0809 11.1787 56.9529 11.424 56.8463 11.68C56.7396 11.936 56.6436 12.2027 56.5583 12.48C56.4943 12.672 56.4623 12.864 56.4623 13.056C56.4409 13.248 56.4303 13.4507 56.4303 13.664C56.4303 13.856 56.4516 14.0587 56.4943 14.272C56.4943 14.3147 56.4943 14.368 56.4943 14.432C56.5156 14.4747 56.5156 14.5173 56.4943 14.56C56.4943 14.7307 56.5049 14.9013 56.5263 15.072C56.5476 15.2213 56.5583 15.3813 56.5583 15.552C56.5796 15.5947 56.5903 15.648 56.5903 15.712C56.6116 15.7547 56.6329 15.7973 56.6543 15.84C56.6969 15.904 56.7396 15.968 56.7823 16.032C56.8249 16.096 56.8463 16.1707 56.8463 16.256C56.8463 16.2773 56.8676 16.3093 56.9103 16.352C56.9529 16.4373 56.9743 16.5013 56.9743 16.544C57.0596 16.6933 57.1129 16.832 57.1343 16.96C57.1769 17.1093 57.2409 17.2267 57.3263 17.312L57.4863 17.504C57.4863 17.568 57.5076 17.632 57.5503 17.696C57.5929 17.7387 57.6249 17.7813 57.6463 17.824C57.7316 17.9093 57.7743 17.9947 57.7743 18.08C57.8169 18.2293 57.8809 18.3467 57.9663 18.432C58.0089 18.4747 58.0516 18.5173 58.0943 18.56C58.1369 18.6027 58.1689 18.6453 58.1903 18.688C58.2969 18.7947 58.3503 18.9013 58.3503 19.008C58.3503 19.072 58.3609 19.1147 58.3823 19.136C58.4463 19.1573 58.4889 19.2 58.5103 19.264C58.5316 19.328 58.5529 19.3813 58.5743 19.424C58.5743 19.4453 58.5743 19.456 58.5743 19.456C58.5956 19.456 58.6063 19.4667 58.6063 19.488C58.6063 19.5307 58.7023 19.616 58.8943 19.744C59.0863 19.872 59.1929 19.9253 59.2143 19.904L59.2783 19.84C59.2996 19.84 59.3103 19.8507 59.3103 19.872H59.3423C59.4916 19.9787 59.5449 20.1067 59.5023 20.256C59.4596 20.256 59.4703 20.288 59.5343 20.352L59.6302 20.416L59.6623 20.448C59.7476 20.5547 59.8756 20.6613 60.0463 20.768C60.0889 20.7893 60.1423 20.8 60.2063 20.8L60.3343 20.768C60.5263 20.7253 60.6756 20.8107 60.7823 21.024C60.7823 21.0667 60.8143 21.12 60.8783 21.184C61.0276 21.2693 61.1769 21.3333 61.3263 21.376C61.4969 21.4187 61.6569 21.4613 61.8063 21.504C61.8916 21.5253 61.9663 21.5467 62.0303 21.568C62.0943 21.568 62.1689 21.5787 62.2543 21.6Z" fill="#27AC5F"/>
</svg>
