<svg width="60" height="24" viewBox="0 0 60 24" fill="none" xmlns="http://www.w3.org/2000/svg">
<path fill-rule="evenodd" clip-rule="evenodd" d="M16.2137 6.57241H21.0291V20.6076H24.7475V6.57241H32.426V20.6076H36.1383V6.57241H40.5198L43.0284 3.17245H16.2137V6.57241Z" fill="#2E2E99"/>
<path fill-rule="evenodd" clip-rule="evenodd" d="M1.75394 18.6291C2.88806 16.2152 5.01996 14.3712 7.59807 13.7053L9.668 8.59574L11.7193 13.654C14.378 14.2687 16.5781 16.1064 17.7432 18.5779H17.7618L11.2855 3.17245H8.21161L1.75394 18.6291Z" fill="#2E2E99"/>
<path fill-rule="evenodd" clip-rule="evenodd" d="M9.64928 13.4235C6.17255 13.4748 3.18541 15.5749 1.76621 18.6099L1.47494 19.3014L0.929565 20.6076H5.02603C5.78211 18.6163 7.56696 17.3229 9.64928 17.2717C9.69266 17.2717 9.99013 17.2717 10.0397 17.2781C12.0601 17.3869 13.7767 18.6611 14.5142 20.6076H18.6169L18.0653 19.3014L17.7802 18.6099C16.3982 15.6518 13.5164 13.5772 10.1575 13.4299C10.0707 13.4235 9.73604 13.4235 9.64928 13.4235Z" fill="#2E2E99"/>
<path fill-rule="evenodd" clip-rule="evenodd" d="M49.5318 17.1885C46.6934 17.1885 44.3942 14.813 44.3942 11.8805C44.3942 8.94792 46.6934 6.57244 49.5318 6.57244C52.3702 6.57244 54.6694 8.94792 54.6694 11.8805C54.6694 14.813 52.3702 17.1885 49.5318 17.1885ZM58.3941 11.8805C58.3941 6.82215 54.4278 2.72428 49.5318 2.72428C44.6359 2.72428 40.6696 6.82215 40.6696 11.8805C40.6696 16.9388 44.6359 21.0366 49.5318 21.0366C54.4278 21.0366 58.3941 16.9388 58.3941 11.8805Z" fill="#27AE60"/>
</svg>
